# xmcd
#
# Track frame offsets: 
#        150
#        24903
#        42855
#        62903
#        92175
#        112273
#        138745
#        159630
#        183408
#        206983
#
# Disc length: 3053 seconds
#
# Revision: 0
# Processed by: cddbd v1.5.2PL0 Copyright (c) Steve Scherf et al.
# Submitted via: ExactAudioCopy v1.0b3
#
DISCID=950beb0a
DTITLE=Various Artist - Tinh Khuc Chieu Mua
DYEAR=1990
DGENRE=
TTITLE0=Kim Anh - Ai dua em ve
TTITLE1=Thanh Tuyen - Tinh khuc chieu mua
TTITLE2=Huong Lan - Tau dem nam cu
TTITLE3=Tuan Anh - Ao anh sut chi duong ta
TTITLE4=Khanh Ly - Tren dinh mua dong
TTITLE5=Thanh Tuyen - Tieng coi trong suong dem
TTITLE6=Kim Anh - Tinh nghia doi ta
TTITLE7=Tuan Vu - Anh khong chet dau anh
TTITLE8=Huong Lan - Hoa trang thoi cai tren ao tim
TTITLE9=Tuan Anh - Chieu mua bien gioi
EXTD=
EXTT0=
EXTT1=
EXTT2=
EXTT3=
EXTT4=
EXTT5=
EXTT6=
EXTT7=
EXTT8=
EXTT9=
PLAYORDER=
